<svg xmlns="http://www.w3.org/2000/svg" viewBox="0 0 766.67 420" width="200" height="110">
  <g>
    <path fill="#fff" stroke="#000" stroke-width="1" d="M653.53,258.47c-2.5-4.15-12.91-19.63-19.25-28l-59.1-86.09c-.71-.98-1.53-2.11-2.43-3.35-6.92-9.54-19.75-27.22-22.66-34.03l30.56-70.89.28-.68c10.53-25.26,15.84-31.1,18.45-31.55l111.62.16c1.46,0,2.89.01,4.28.01,8.13,0,15.14-.15,20.77-.28,4.13-.09,7.7-.17,10.73-.17,7.46,0,12.05.44,13.49,2.68,1.82,2.84-1.08,9.15-6.34,20.62l-1.45,3.17c-.05.12-7.79,17.47-7.97,17.9l-90.98,210.49Z"/>
    <path fill="#d91c00" stroke="#000" stroke-width="1" d="M746.79,4.11c7.1,0,11.76.41,13.07,2.45,1.67,2.61-1.19,8.83-6.38,20.14-.47,1.01-.95,2.07-1.45,3.17-.06.12-7.79,17.48-7.97,17.91l-90.6,209.62c-3.28-5.28-12.96-19.56-18.74-27.19l-59.12-86.13c-.7-.97-1.52-2.1-2.43-3.35-6.85-9.43-19.48-26.84-22.52-33.73l30.48-70.7.28-.67c10.86-26.05,15.92-30.79,17.99-31.24l111.6.15c1.46,0,2.9.01,4.29.01,8.14,0,15.15-.15,20.78-.28,4.13-.09,7.69-.17,10.72-.17M746.79,3.11c-7.25,0-17.52.45-31.5.45-1.39,0-2.82,0-4.28-.01l-111.7-.15c-6.19,1.07-16.75,26.9-19.1,32.52l-30.65,71.08c3.11,7.56,18.89,28.89,25.22,37.67l59.11,86.11c7.63,10.07,19.56,28.15,19.7,28.81l91.38-211.42c.15-.35,7.8-17.54,7.96-17.89,10.94-23.93,13.37-27.17-6.15-27.17h0Z"/>
  </g>
  <g>
    <path fill="#d91c00" stroke="#000" stroke-width="1" d="M290.81,419.07c-10.35,0-20.78-6.8-29.38-19.16L12.14,39.54c-4.63-6.7-5.14-17.01-1.21-24.52,2.68-5.1,6.82-7.92,11.67-7.92.24,0,.48,0,.73.02h174.47c9.22.53,15.74,12.76,21.49,23.55,2.21,4.15,4.31,8.08,6.47,11.25l144.58,208.18c3.87,5.57,4.6,12.74,1.94,19.16l-50.68,122.78c-7.09,17.17-18.32,27.02-30.82,27.02Z"/>
    <path fill="#fff" stroke="#000" stroke-width="2" d="M22.61,7.61c.23,0,.47,0,.7.02h.03s.03,0,.03,0h174.41c8.95.54,15.4,12.62,21.08,23.28,2.22,4.16,4.32,8.1,6.51,11.31l144.57,208.18c3.77,5.43,4.48,12.42,1.89,18.68l-50.68,122.78c-7.01,16.98-18.07,26.71-30.36,26.71-10.18,0-20.47-6.73-28.97-18.94l-.74-1.07L12.55,39.26c-4.54-6.56-5.03-16.65-1.17-24,2.59-4.93,6.57-7.65,11.23-7.65M22.61,6.61c-13.49,0-19.37,20.94-10.88,33.22l248.54,359.3c.25.35.49.71.75,1.08,9.05,13,19.64,19.37,29.79,19.37,12.23,0,23.82-9.26,31.28-27.33l50.68-122.78c2.71-6.57,1.96-13.94-2-19.64L226.2,41.65c-7.97-11.69-15.33-34.27-28.38-35.02H23.37c-.26-.01-.51-.02-.76-.02h0Z"/>
  </g>
  <g>
    <path fill="#d91c00" stroke="#000" stroke-width="1" d="M568.22,416.32c-10.35,0-20.78-6.8-29.38-19.15L289.56,36.8c-4.63-6.7-5.14-17.01-1.21-24.52,2.68-5.1,6.82-7.92,11.67-7.92.24,0,.48,0,.73.02h174.47c9.22.53,15.74,12.76,21.5,23.55,2.21,4.15,4.31,8.07,6.47,11.25l147.05,213.66c.94,1.42,1.68,2.4,2.23,3.11q1.42,1.84.13,4.82c-.55,1.27-1.3,3-2.25,5.53l-51.32,123c-7.09,17.17-18.32,27.02-30.82,27.02Z"/>
    <path fill="#fff" stroke="#000" stroke-width="2" d="M300.03,4.86c.23,0,.47,0,.7.02h.03s.03,0,.03,0h174.41c8.95.54,15.4,12.62,21.08,23.28,2.22,4.16,4.32,8.1,6.5,11.3l147.04,213.64c.95,1.45,1.71,2.43,2.26,3.15.71.93,1,1.32,1.02,1.65.02.44-.35,1.28-.95,2.66-.55,1.27-1.3,3.01-2.25,5.52l-51.33,123.02c-7.01,16.98-18.07,26.71-30.36,26.71-10.18,0-20.47-6.73-28.97-18.94l-.74-1.07L289.97,36.51c-4.54-6.56-5.03-16.65-1.17-24,2.59-4.93,6.57-7.65,11.23-7.65M300.03,3.86c-13.49,0-19.37,20.94-10.88,33.22l248.54,359.3c.25.35.49.71.75,1.08,9.05,13,19.64,19.37,29.79,19.37,12.23,0,23.82-9.26,31.28-27.33l51.33-123.01c4.25-11.31,4.53-6.78-.17-13.92L503.61,38.9c-7.97-11.69-15.33-34.27-28.38-35.02h-174.44c-.26-.01-.51-.02-.76-.02h0Z"/>
  </g>
</svg>
